
<svg version="1.0" xmlns="http://www.w3.org/2000/svg"
 width="488.000000pt" height="384.000000pt" viewBox="0 0 488.000000 384.000000"
 preserveAspectRatio="xMidYMid meet">

<g transform="translate(0.000000,384.000000) scale(0.100000,-0.100000)"
fill="#8C61FF" stroke="none">
<path d="M826 3398 c5 -7 66 -89 138 -182 l130 -169 -245 -1118 c-135 -616
-243 -1121 -241 -1124 10 -10 641 -5 647 5 5 8 173 759 230 1028 l7 32 131 0
132 0 245 181 c135 99 249 184 253 188 11 11 37 123 31 133 -3 5 -156 8 -340
8 -268 0 -334 3 -334 13 0 11 87 420 105 495 5 21 9 22 135 22 151 0 142 11
110 -125 -11 -47 -20 -92 -20 -100 0 -13 32 -15 208 -15 l207 0 44 208 c25
114 47 209 51 212 7 5 70 284 70 308 0 9 -195 12 -851 12 -677 0 -849 -3 -843
-12z"/>
<path d="M2541 3023 c-47 -214 -88 -390 -92 -393 -3 -3 -9 -18 -13 -35 -3 -16
-84 -391 -181 -832 -165 -760 -174 -804 -160 -836 16 -39 84 -104 117 -112 13
-3 304 -4 648 -3 l624 3 -1 76 0 77 36 -15 c20 -9 93 -44 163 -79 70 -35 130
-64 133 -64 3 0 5 8 5 18 0 12 -39 37 -137 87 -126 64 -138 72 -139 98 0 15 3
30 8 33 4 3 5 11 1 17 -11 17 -11 57 -1 63 5 3 4 12 -3 20 -10 12 -8 13 12 5
72 -27 210 -87 252 -108 27 -13 50 -23 51 -21 1 2 25 106 53 231 l50 228 -28
19 c-15 11 -29 20 -31 20 -3 0 -43 -23 -89 -51 -88 -53 -258 -141 -346 -179
l-52 -22 -62 41 c-34 23 -63 41 -65 41 -2 0 -4 -8 -4 -17 0 -30 -59 36 -90
101 l-28 60 -12 -45 c-7 -25 -10 -66 -6 -96 5 -44 3 -53 -9 -53 -9 0 -19 10
-24 22 l-8 23 -7 -23 c-7 -21 -11 -22 -152 -22 -79 0 -144 2 -144 5 0 5 333
1534 345 1583 l5 22 235 0 c129 0 235 -4 235 -8 0 -5 -13 -70 -29 -145 l-29
-135 281 -176 c238 -149 282 -174 288 -159 3 10 52 230 109 490 67 307 100
481 96 498 -10 40 -83 113 -125 125 -23 6 -322 10 -816 10 l-780 0 -84 -387z"/>
<path d="M4056 2074 c-4 -17 -21 -48 -39 -69 -29 -36 -32 -45 -32 -113 l-1
-74 29 33 c16 19 35 47 44 63 19 36 28 133 15 166 l-9 25 -7 -31z"/>
<path d="M4105 1923 c-3 -16 -17 -45 -31 -66 -22 -34 -24 -47 -22 -120 l3 -82
39 58 c31 45 40 70 44 112 8 94 -16 165 -33 98z"/>
<path d="M3380 1743 c-12 -54 -24 -106 -26 -115 -3 -10 -3 -18 0 -18 13 0 226
104 226 111 0 4 -30 26 -67 50 -38 23 -78 48 -90 56 -21 14 -22 12 -43 -84z"/>
<path d="M3670 1591 c-35 -20 -132 -68 -215 -108 -85 -40 -151 -78 -153 -87
-4 -17 266 100 397 171 63 35 71 42 55 51 -15 7 -34 1 -84 -27z"/>
</g>
</svg>
